<svg width="80" height="71" viewBox="0 0 80 71" fill="none" xmlns="http://www.w3.org/2000/svg">
<rect width="80" height="71" rx="20" fill="#A76565"/>
<path d="M35.0352 41.1621C35.0352 43.4238 34.2148 45.1875 32.5742 46.4531C30.9336 47.7188 28.707 48.3516 25.8945 48.3516C22.8477 48.3516 20.5039 47.959 18.8633 47.1738V44.291C19.918 44.7363 21.0664 45.0879 22.3086 45.3457C23.5508 45.6035 24.7812 45.7324 26 45.7324C27.9922 45.7324 29.4922 45.3574 30.5 44.6074C31.5078 43.8457 32.0117 42.791 32.0117 41.4434C32.0117 40.5527 31.8301 39.8262 31.4668 39.2637C31.1152 38.6895 30.5176 38.1621 29.6738 37.6816C28.8418 37.2012 27.5703 36.6562 25.8594 36.0469C23.4688 35.1914 21.7578 34.1777 20.7266 33.0059C19.707 31.834 19.1973 30.3047 19.1973 28.418C19.1973 26.4375 19.9414 24.8613 21.4297 23.6895C22.918 22.5176 24.8867 21.9316 27.3359 21.9316C29.8906 21.9316 32.2402 22.4004 34.3848 23.3379L33.4531 25.9395C31.332 25.0488 29.2695 24.6035 27.2656 24.6035C25.6836 24.6035 24.4473 24.9434 23.5566 25.623C22.666 26.3027 22.2207 27.2461 22.2207 28.4531C22.2207 29.3438 22.3848 30.0762 22.7129 30.6504C23.041 31.2129 23.5918 31.7344 24.3652 32.2148C25.1504 32.6836 26.3457 33.2051 27.9512 33.7793C30.6465 34.7402 32.498 35.7715 33.5059 36.873C34.5254 37.9746 35.0352 39.4043 35.0352 41.1621ZM56.5859 29.7891C56.5859 32.3906 55.6953 34.3945 53.9141 35.8008C52.1445 37.1953 49.6074 37.8926 46.3027 37.8926H43.2793V48H40.291V22.3008H46.9531C53.375 22.3008 56.5859 24.7969 56.5859 29.7891ZM43.2793 35.3262H45.9688C48.6172 35.3262 50.5332 34.8984 51.7168 34.043C52.9004 33.1875 53.4922 31.8164 53.4922 29.9297C53.4922 28.2305 52.9355 26.9648 51.8223 26.1328C50.709 25.3008 48.9746 24.8848 46.6191 24.8848H43.2793V35.3262Z" fill="white"/>
</svg>
